<svg width="791" height="233" viewBox="0 0 791 233" fill="none" xmlns="http://www.w3.org/2000/svg">
<path d="M168.962 92.2329C168.962 89.6405 170.15 87.9662 172.527 87.2101C173.175 86.9941 174.039 86.8861 175.119 86.8861C176.199 86.8861 177.279 87.3181 178.359 88.1823C179.548 89.0464 180.142 90.3966 180.142 92.2329V170.815C180.142 173.3 178.954 174.92 176.577 175.676C175.929 175.892 175.065 176 173.985 176C172.905 176 171.77 175.568 170.582 174.704C169.502 173.84 168.962 172.543 168.962 170.815V92.2329ZM204.18 94.1772C204.18 92.1249 204.72 90.5586 205.8 89.4785C207.528 87.7502 209.203 86.8861 210.823 86.8861C213.631 86.8861 216.008 88.0743 217.952 90.4506L265.263 161.742V91.9089C265.263 89.5325 266.343 87.9662 268.504 87.2101C269.152 86.9941 269.8 86.8861 270.448 86.8861C271.096 86.8861 271.744 86.9941 272.392 87.2101C273.041 87.4262 273.581 87.7502 274.013 88.1823C275.093 89.0464 275.633 90.2886 275.633 91.9089V168.547C275.633 172.111 274.121 174.434 271.096 175.514C270.124 175.838 269.098 176 268.018 176C265.317 176 263.103 174.812 261.375 172.435L214.711 102.116V171.139C214.711 172.543 214.279 173.57 213.415 174.218C212.119 175.406 210.769 176 209.365 176C208.068 176 206.88 175.622 205.8 174.866C204.72 174.002 204.18 172.759 204.18 171.139V94.1772ZM307.452 109.408C307.452 111.784 308.154 113.944 309.559 115.889C311.071 117.833 313.015 119.507 315.391 120.911C317.768 122.208 320.468 123.342 323.493 124.314C326.517 125.286 329.704 126.312 333.052 127.392C336.509 128.473 339.803 129.661 342.936 130.957C346.176 132.253 349.039 133.873 351.523 135.818C356.924 140.03 359.624 145.809 359.624 153.154C359.624 156.611 358.76 159.905 357.032 163.038C355.412 166.062 353.089 168.655 350.065 170.815C344.016 175.136 336.077 177.296 326.247 177.296C316.202 177.296 307.83 174.92 301.133 170.167C297.029 167.467 294.868 165.576 294.652 164.496C294.544 164.064 294.49 163.632 294.49 163.2C294.49 162.66 294.598 162.066 294.814 161.418C295.03 160.77 295.3 160.23 295.624 159.797C296.597 158.609 297.461 158.015 298.217 158.015C299.081 158.015 299.891 158.285 300.647 158.825C301.403 159.365 302.267 160.014 303.24 160.77C304.32 161.526 305.616 162.39 307.128 163.362C308.748 164.334 310.531 165.198 312.475 165.954C316.796 167.467 320.954 168.223 324.951 168.223C329.056 168.223 332.404 167.953 334.997 167.413C337.697 166.765 340.019 165.792 341.964 164.496C346.068 161.688 348.121 158.123 348.121 153.803C348.121 146.349 342.72 140.949 331.918 137.6C328.894 136.628 325.707 135.656 322.359 134.684C319.118 133.603 315.878 132.361 312.637 130.957C309.397 129.553 306.534 127.878 304.05 125.934C301.565 123.99 299.567 121.668 298.055 118.967C296.651 116.159 295.948 113.026 295.948 109.57C295.948 106.113 296.813 102.873 298.541 99.8481C300.269 96.8236 302.537 94.3392 305.346 92.3949C311.179 88.1823 318.362 86.076 326.895 86.076C339.101 86.076 348.985 90.0726 356.546 98.0658C357.086 98.6059 357.356 99.308 357.356 100.172C357.356 101.036 357.248 101.738 357.032 102.278C356.924 102.819 356.708 103.305 356.384 103.737C355.628 104.817 354.602 105.357 353.305 105.357C352.009 105.357 350.605 104.601 349.093 103.089C345.744 100.604 342.936 98.8759 340.667 97.9038C336.671 96.2835 332.404 95.4734 327.867 95.4734C322.467 95.4734 317.876 96.6076 314.095 98.8759C309.667 101.36 307.452 104.871 307.452 109.408ZM372.694 95.9595C371.182 95.9595 369.994 95.5274 369.129 94.6633C368.373 93.6911 367.995 92.611 367.995 91.4228C367.995 90.2346 368.373 89.2084 369.129 88.3443C369.994 87.3722 371.182 86.8861 372.694 86.8861H432.319C433.94 86.8861 435.128 87.3722 435.884 88.3443C436.64 89.2084 437.018 90.2346 437.018 91.4228C437.018 92.503 436.64 93.5291 435.884 94.5013C435.128 95.4734 433.94 95.9595 432.319 95.9595H408.34V170.653C408.34 173.246 407.151 174.92 404.775 175.676C404.127 175.892 403.263 176 402.183 176C401.21 176 400.13 175.568 398.942 174.704C397.754 173.732 397.16 172.381 397.16 170.653V95.9595H372.694ZM450.453 92.2329C450.453 89.6405 451.587 87.9662 453.855 87.2101C454.611 86.9941 455.53 86.8861 456.61 86.8861C457.69 86.8861 458.77 87.3181 459.85 88.1823C461.039 89.0464 461.633 90.3966 461.633 92.2329V144.729C461.633 152.29 464.117 158.231 469.086 162.552C473.298 166.332 478.645 168.223 485.126 168.223C491.607 168.223 497.062 166.332 501.491 162.552C506.46 158.339 508.944 152.398 508.944 144.729V92.2329C508.944 89.6405 510.132 87.9662 512.509 87.2101C513.157 86.9941 513.967 86.8861 514.939 86.8861C516.019 86.8861 517.099 87.3181 518.179 88.1823C519.368 89.0464 519.962 90.3966 519.962 92.2329V145.053C519.962 155.207 516.397 163.308 509.268 169.357C503.111 174.65 495.064 177.296 485.126 177.296C475.297 177.296 467.249 174.65 460.984 169.357C453.963 163.308 450.453 155.207 450.453 145.053V92.2329ZM548.314 176C545.829 176 544.155 174.92 543.291 172.759C542.967 172.111 542.805 171.409 542.805 170.653V92.2329C542.805 89.7485 543.939 88.0743 546.207 87.2101C546.855 86.9941 547.557 86.8861 548.314 86.8861H569.539C593.195 86.8861 608.101 95.3654 614.258 112.324C616.31 117.941 617.336 124.422 617.336 131.767C617.336 139.004 616.256 145.377 614.096 150.886C612.044 156.395 608.965 160.986 604.86 164.658C596.543 172.219 584.877 176 569.863 176H548.314ZM553.822 167.251H570.997C582.771 167.251 591.574 164.01 597.407 157.529C602.808 151.696 605.509 143.001 605.509 131.443C605.509 119.561 602.16 110.542 595.463 104.385C589.306 98.5519 580.179 95.6354 568.081 95.6354H553.822V167.251ZM637.962 92.2329C637.962 89.6405 639.15 87.9662 641.527 87.2101C642.175 86.9941 643.039 86.8861 644.119 86.8861C645.199 86.8861 646.279 87.3181 647.359 88.1823C648.548 89.0464 649.142 90.3966 649.142 92.2329V170.815C649.142 173.3 647.954 174.92 645.577 175.676C644.929 175.892 644.065 176 642.985 176C641.905 176 640.77 175.568 639.582 174.704C638.502 173.84 637.962 172.543 637.962 170.815V92.2329ZM683.549 118.481C682.469 123.018 681.929 127.446 681.929 131.767C681.929 136.088 682.469 140.516 683.549 145.053C684.738 149.59 686.52 153.586 688.896 157.043C691.381 160.392 694.513 163.146 698.294 165.306C702.074 167.359 706.611 168.385 711.904 168.385C717.197 168.385 721.733 167.359 725.514 165.306C729.295 163.146 732.427 160.392 734.911 157.043C737.396 153.586 739.178 149.59 740.258 145.053C741.338 140.516 741.878 136.088 741.878 131.767C741.878 127.446 741.338 123.018 740.258 118.481C739.178 113.944 737.396 109.948 734.911 106.491C732.427 103.035 729.295 100.28 725.514 98.2278C721.733 96.1755 717.197 95.1494 711.904 95.1494C706.611 95.1494 702.074 96.1755 698.294 98.2278C694.513 100.28 691.381 103.035 688.896 106.491C686.52 109.948 684.738 113.944 683.549 118.481ZM669.939 131.767C669.939 125.394 670.857 119.345 672.694 113.62C674.53 107.895 677.23 102.981 680.795 98.8759C688.356 90.3426 698.726 86.076 711.904 86.076C725.19 86.076 735.559 90.3426 743.013 98.8759C746.469 102.981 749.116 107.895 750.952 113.62C752.788 119.345 753.706 125.394 753.706 131.767C753.706 138.14 752.788 144.189 750.952 149.914C749.116 155.639 746.469 160.554 743.013 164.658C735.559 173.084 725.19 177.296 711.904 177.296C698.618 177.296 688.248 173.084 680.795 164.658C677.23 160.554 674.53 155.639 672.694 149.914C670.857 144.189 669.939 138.14 669.939 131.767Z" fill="white"/>
<path d="M99 105C99 99.4772 103.477 95 109 95H131V192C131 200.837 123.837 208 115 208H99V105Z" fill="white"/>
<path d="M0 65C0 59.4772 4.47715 55 10 55H32V151C32 159.837 24.8366 167 16 167H0V65Z" fill="white"/>
<path d="M2 193C2 184.163 9.16344 177 18 177H34V203C34 205.761 31.7614 208 29 208H2V193Z" fill="white"/>
<path d="M131 71C131 79.8366 123.837 87 115 87H99V60C99 57.2386 101.239 55 104 55H131V71Z" fill="white"/>
<path d="M92 208H70C64.4772 208 60 203.523 60 198L60 144C60 138.477 64.4772 134 70 134H82C87.5228 134 92 138.477 92 144L92 208Z" fill="white"/>
<path d="M39 55H61C66.5228 55 71 59.4772 71 65V119C71 124.523 66.5228 129 61 129H49C43.4772 129 39 124.523 39 119V55Z" fill="white"/>
</svg>
